HIERARCHY
ROOT Hips
{
	OFFSET 0.000000 0.000000 0.000000
	CHANNELS 6 Xposition Yposition Zposition Zrotation Yrotation Xrotation
	JOINT LHipJoint
	{
		OFFSET 0.000000 0.000000 0.000000
		CHANNELS 3 Zrotation Yrotation Xrotation
		JOINT LeftUpLeg
		{
			OFFSET 0.076937 -0.101296 0.047373
			CHANNELS 3 Zrotation Yrotation Xrotation
			JOINT LeftLeg
			{
				OFFSET 0.138181 -0.379650 0.000000
				CHANNELS 3 Zrotation Yrotation Xrotation
				JOINT LeftFoot
				{
					OFFSET 0.144621 -0.397343 0.000000
					CHANNELS 3 Zrotation Yrotation Xrotation
					JOINT LeftToeBase
					{
						OFFSET 0.008898 -0.024446 0.131094
						CHANNELS 3 Zrotation Yrotation Xrotation
						End Site
						{
							OFFSET 0.000000 0.000000 0.000000
						}
					}
				}
			}
		}
	}
	JOINT RHipJoint
	{
		OFFSET 0.000000 0.000000 0.000000
		CHANNELS 3 Zrotation Yrotation Xrotation
		JOINT RightUpLeg
		{
			OFFSET -0.073689 -0.101296 0.047373
			CHANNELS 3 Zrotation Yrotation Xrotation
			JOINT RightLeg
			{
				OFFSET -0.143511 -0.394292 0.000000
				CHANNELS 3 Zrotation Yrotation Xrotation
				JOINT RightFoot
				{
					OFFSET -0.144963 -0.398282 0.000000
					CHANNELS 3 Zrotation Yrotation Xrotation
					JOINT RightToeBase
					{
						OFFSET -0.009298 -0.025546 0.133386
						CHANNELS 3 Zrotation Yrotation Xrotation
						End Site
						{
							OFFSET 0.000000 0.000000 0.000000
						}
					}
				}
			}
		}
	}
	JOINT LowerBack
	{
		OFFSET 0.000000 0.000000 0.000000
		CHANNELS 3 Zrotation Yrotation Xrotation
		JOINT Spine
		{
			OFFSET 0.001596 0.114897 -0.010915
			CHANNELS 3 Zrotation Yrotation Xrotation
			JOINT Spine1
			{
				OFFSET 0.003201 0.115645 -0.002413
				CHANNELS 3 Zrotation Yrotation Xrotation
				JOINT Neck
				{
					OFFSET 0.000000 0.000000 0.000000
					CHANNELS 3 Zrotation Yrotation Xrotation
					JOINT Neck1
					{
						OFFSET -0.003058 0.098565 0.009709
						CHANNELS 3 Zrotation Yrotation Xrotation
						JOINT Head
						{
							OFFSET 0.005874 0.099418 -0.006997
							CHANNELS 3 Zrotation Yrotation Xrotation
							End Site
							{
								OFFSET 0.000000 0.000000 0.000000
							}
						}
					}
				}
				JOINT LeftShoulder
				{
					OFFSET 0.000000 0.000000 0.000000
					CHANNELS 3 Zrotation Yrotation Xrotation
					JOINT LeftArm
					{
						OFFSET 0.189788 0.067783 -0.017566
						CHANNELS 3 Zrotation Yrotation Xrotation
						JOINT LeftForeArm
						{
							OFFSET 0.281260 -0.000000 -0.000000
							CHANNELS 3 Zrotation Yrotation Xrotation
							JOINT LeftHand
							{
								OFFSET 0.196626 -0.000000 -0.000000
								CHANNELS 3 Zrotation Yrotation Xrotation
								JOINT LeftFingerBase
								{
									OFFSET 0.000000 0.000000 0.000000
									CHANNELS 3 Zrotation Yrotation Xrotation
									JOINT LeftHandIndex1
									{
										OFFSET 0.040372 -0.000000 -0.000000
										CHANNELS 3 Zrotation Yrotation Xrotation
										End Site
										{
											OFFSET 0.000000 0.000000 0.000000
										}
									}
								}
								JOINT LThumb
								{
									OFFSET 0.000000 0.000000 0.000000
									CHANNELS 3 Zrotation Yrotation Xrotation
									End Site
									{
										OFFSET 0.000000 0.000000 0.000000
									}
								}
							}
						}
					}
				}
				JOINT RightShoulder
				{
					OFFSET 0.000000 0.000000 0.000000
					CHANNELS 3 Zrotation Yrotation Xrotation
					JOINT RightArm
					{
						OFFSET -0.177042 0.077557 -0.022840
						CHANNELS 3 Zrotation Yrotation Xrotation
						JOINT RightForeArm
						{
							OFFSET -0.295874 -0.000000 -0.000000
							CHANNELS 3 Zrotation Yrotation Xrotation
							JOINT RightHand
							{
								OFFSET -0.194403 -0.000000 -0.000000
								CHANNELS 3 Zrotation Yrotation Xrotation
								JOINT RightFingerBase
								{
									OFFSET 0.000000 0.000000 0.000000
									CHANNELS 3 Zrotation Yrotation Xrotation
									JOINT RightHandIndex1
									{
										OFFSET -0.035138 -0.000000 -0.000000
										CHANNELS 3 Zrotation Yrotation Xrotation
										End Site
										{
											OFFSET 0.000000 0.000000 0.000000
										}
									}
								}
								JOINT RThumb
								{
									OFFSET 0.000000 0.000000 0.000000
									CHANNELS 3 Zrotation Yrotation Xrotation
									End Site
									{
										OFFSET 0.000000 0.000000 0.000000
									}
								}
							}
						}
					}
				}
			}
		}
	}
}
MOTION
Frames: 6
Frame Time: 0.033333
21.456863 1.012684 -9.238240 178.145967 -41.831000 -174.952282 -4.080950 20.405636 0.807097 -8.910454 -5.810447 -14.106735 17.858465 14.134636 63.175383 43.003126 -23.248815 18.926999 -12.109543 20.663713 -8.616674 0.482007 -29.451218 -5.115598 30.394237 11.631206 -21.583829 -5.956795 -1.855452 35.545041 -29.900981 8.885387 -5.039306 6.128273 -4.937676 -10.773133 7.378005 4.242766 21.730181 0.479763 3.022739 11.758810 -6.327524 -2.759903 -25.152440 -5.992563 11.050576 -13.763644 6.259258 9.620026 3.975588 -0.538005 2.593811 -12.937644 12.025293 22.220276 1.936624 -77.444500 -16.068230 56.366119 159.672667 -85.415771 -151.581795 10.805631 -31.826540 9.978925 -3.870070 7.943489 0.256663 -0.007601 -0.021181 0.014380 -0.004410 0.009361 -0.003804 -13.696406 -37.801701 7.692843 70.051196 -6.309223 43.880294 -160.060421 81.803375 -159.214824 -9.040523 19.131814 9.460586 2.798922 -10.811784 -0.231729 -0.024641 -0.073367 0.041261 0.011065 0.006573 0.008690 
21.419987 0.996580 -9.293094 178.204335 -41.365818 -175.705150 -4.331999 21.438548 -1.429161 -8.881316 -6.270661 -17.468513 23.783069 13.094967 71.528324 45.870405 -24.808871 15.073487 -11.568933 22.583755 -7.167328 1.364773 -30.108448 -5.003397 31.754291 10.542510 -19.570951 -7.750283 -3.646897 39.262544 -32.010922 8.037524 -7.760824 5.410718 -5.019061 -11.018385 6.380940 3.977308 22.670971 -0.791309 3.136002 11.847487 -4.483059 -1.175676 -25.003251 -5.662382 10.004002 -13.993501 6.143746 8.502231 3.892141 -0.656481 2.213623 -12.934253 11.701820 23.549622 2.212039 -77.282948 -15.010679 54.741395 122.562297 -88.777321 -113.698791 10.335196 -31.799470 10.391937 -3.668596 8.168003 0.227412 -0.008220 -0.022307 0.015609 -0.005141 0.006888 -0.002904 -11.708047 -36.788967 7.115475 69.069633 -4.536378 42.146200 -159.468141 84.064963 -158.055836 -9.847231 19.343901 10.437440 2.456285 -10.936599 -0.220183 -0.024072 -0.074728 0.039311 0.011846 0.006639 0.007116 
21.384931 0.973236 -9.344454 178.554329 -40.525881 -176.674567 -4.334159 22.638990 -3.229202 -9.289523 -7.935214 -21.990504 26.675917 10.678934 78.213740 44.857618 -19.030915 12.060420 -10.563218 21.420193 -6.428482 2.855976 -31.090717 -5.732632 33.358116 8.994288 -17.328564 -11.255621 -5.487895 45.095025 -35.286930 6.928448 -11.865681 4.666823 -5.307930 -11.013358 5.485300 3.914894 24.374186 -0.927553 3.330657 11.578219 -3.270068 0.123982 -25.084299 -5.582643 9.787873 -14.185303 6.385446 8.382124 4.379752 -0.620595 1.979322 -12.600008 11.024943 24.353171 2.807019 -75.899465 -13.916391 51.269502 -0.192432 -87.191652 9.405284 9.749686 -30.230940 10.226951 -3.131140 8.768657 0.208496 -0.008289 -0.021516 0.014213 -0.004847 0.004670 -0.000531 -10.036244 -36.091107 5.838964 69.408209 -1.845489 41.039995 -158.420738 86.230880 -155.861864 -10.276757 19.648942 10.864108 1.984697 -11.020927 -0.226667 -0.023546 -0.074525 0.033803 0.009161 0.006476 0.005769 
21.351304 0.951546 -9.392314 179.058131 -39.814291 -177.233821 -4.575946 23.931353 -4.926923 -10.957183 -9.904829 -26.092259 26.290189 7.600239 80.601900 39.855662 -11.317993 10.323677 -9.900618 17.723760 -6.766841 3.827597 -31.537062 -6.254722 34.430239 7.839823 -15.312833 -13.990927 -6.130297 49.578531 -36.741462 6.556778 -15.286832 4.403096 -5.695477 -11.256287 4.605521 3.441087 26.175631 -0.635618 2.916099 11.263088 -2.419758 0.701453 -25.012330 -5.211450 8.632477 -14.198152 6.661011 7.540393 4.553375 -0.683536 1.415527 -12.304668 9.972233 24.806605 3.008537 -74.036374 -13.028322 46.823143 -7.509878 -82.111340 17.145953 9.382437 -28.423905 9.856406 -2.313097 9.618584 0.232244 -0.008344 -0.022210 0.011985 -0.003863 0.004386 -0.000175 -8.611837 -34.254450 4.267844 71.197587 1.733200 40.390884 -163.381610 87.677202 -158.997930 -10.484126 19.440099 10.753825 1.232952 -11.330687 -0.230202 -0.022534 -0.073985 0.032301 0.007706 0.004733 0.006496 
21.318945 0.935634 -9.438488 179.481591 -39.342662 -177.304625 -5.129273 24.718904 -6.281243 -13.281002 -12.016300 -28.723900 25.630714 4.402659 79.463782 35.140630 -5.553911 8.499828 -9.211163 13.581428 -7.644512 4.201087 -31.774396 -6.215375 34.891771 6.847060 -13.666524 -15.355662 -6.389982 51.486889 -38.096280 7.411145 -17.613133 4.166471 -5.634922 -11.482492 4.010197 2.816123 28.328103 -0.431252 2.262112 10.506557 -1.844739 0.965480 -24.097330 -4.705268 6.910389 -14.228843 6.881526 6.313965 4.049118 -0.793510 0.783532 -12.351388 9.191296 24.785917 3.074012 -72.281370 -12.231646 42.487206 -7.883751 -78.105735 17.794453 9.209191 -27.099645 9.527077 -1.457083 10.303449 0.338323 -0.009053 -0.022910 0.011115 -0.002293 0.004782 -0.000536 -8.084635 -31.539600 3.233618 74.282691 5.852664 39.621003 179.512471 87.054610 -174.179562 -10.872158 19.920384 10.579228 -0.073175 -11.178464 -0.185345 -0.021563 -0.071679 0.033190 0.007063 0.002868 0.009214 
21.288298 0.925331 -9.484573 179.735854 -39.147519 -177.226364 -5.775308 25.069389 -7.562736 -15.807293 -13.878468 -29.529459 26.340302 2.367232 75.987163 34.631152 -4.440187 6.101805 -8.120612 11.550052 -7.946355 4.102473 -31.842678 -5.369837 34.737904 6.278784 -11.944881 -15.830350 -6.666215 51.508698 -39.583333 8.914372 -18.839785 4.254029 -5.721964 -11.881273 4.315789 2.080694 30.882255 -1.065494 1.602143 9.261668 -1.419536 1.751955 -22.889952 -4.208031 5.585711 -14.323027 7.294584 5.308321 3.135965 -0.850319 0.031829 -12.700601 9.336934 24.563315 3.412148 -71.072788 -11.359738 39.285148 -8.670407 -76.716194 17.862976 8.996153 -26.775625 9.553049 -1.238773 10.468231 0.426495 -0.010528 -0.021937 0.012446 0.000828 0.004466 -0.000456 -8.327052 -29.104837 2.263742 77.454305 9.303340 38.478908 173.437947 84.381798 -178.868127 -11.082274 19.975405 10.067102 -1.457817 -10.721944 -0.134193 -0.020819 -0.068790 0.034266 0.004577 0.001367 0.012559 
